<?xml version="1.0" encoding="UTF-8" standalone="no"?>
<svg
   width="456"
   height="456"
   viewBox="0 0 456 456"
   version="1.1"
   xml:space="preserve"
   style="fill-rule:evenodd;clip-rule:evenodd;stroke-linejoin:round;stroke-miterlimit:2;"
   id="svg4"
   sodipodi:docname="splash.svg"
   inkscape:version="1.3 (0e150ed6c4, 2023-07-21)"
   xmlns:inkscape="http://www.inkscape.org/namespaces/inkscape"
   xmlns:sodipodi="http://sodipodi.sourceforge.net/DTD/sodipodi-0.dtd"
   xmlns="http://www.w3.org/2000/svg"
   xmlns:svg="http://www.w3.org/2000/svg"><defs
   id="defs4" /><sodipodi:namedview
   id="namedview4"
   pagecolor="#ffffff"
   bordercolor="#000000"
   borderopacity="0.25"
   inkscape:showpageshadow="2"
   inkscape:pageopacity="0.0"
   inkscape:pagecheckerboard="0"
   inkscape:deskcolor="#d1d1d1"
   inkscape:zoom="1.6973684"
   inkscape:cx="228.29458"
   inkscape:cy="228"
   inkscape:window-width="1920"
   inkscape:window-height="989"
   inkscape:window-x="-9"
   inkscape:window-y="-9"
   inkscape:window-maximized="1"
   inkscape:current-layer="svg4" />&#10;    &#10;    &#10;    &#10;    &#10;<path
   d="m 84.420951,273.22535 c -2.70293,0 -5.00091,-0.90042 -6.89313,-2.70209 -1.89221,-1.84778 -2.8379,-4.04181 -2.8379,-6.58209 0,-2.58722 0.94569,-4.80389 2.8379,-6.65167 1.89222,-1.84778 4.1902,-2.77167 6.89313,-2.77167 2.74819,0 5.06798,0.92389 6.96019,2.77167 1.93749,1.84778 2.90581,4.06445 2.90581,6.65167 0,2.54028 -0.96832,4.73431 -2.90581,6.58209 -1.89221,1.80167 -4.212,2.70209 -6.96019,2.70209 z"
   style="clip-rule:evenodd;fill:#0a2961;fill-rule:nonzero;stroke-width:0.838376;stroke-linejoin:round;stroke-miterlimit:2;fill-opacity:1"
   id="path1" /><path
   d="m 192.48169,271.70118 h -17.57067 l -46.29091,-73.03006 c -1.17121,-1.84778 -2.14037,-3.76515 -2.90581,-5.75126 h -0.40578 c 0.36051,2.12528 0.54076,6.67515 0.54076,13.6496 v 65.13172 h -15.54349 v -99.36009 h 18.71925 l 44.7374,71.29798 c 1.89222,2.95695 3.1087,4.98917 3.64945,6.09751 h 0.26996 c -0.45021,-2.6325 -0.67573,-7.09015 -0.67573,-13.37293 v -64.02256 h 15.47557 z"
   style="clip-rule:evenodd;fill:#0a2961;fill-rule:nonzero;stroke-width:0.838376;stroke-linejoin:round;stroke-miterlimit:2;fill-opacity:1"
   id="path2" /><path
   d="M 268.17192,271.70118 H 213.7714 v -99.36009 h 52.23835 v 13.99669 h -36.15411 v 28.13085 h 33.31621 v 13.9271 h -33.31621 v 29.37835 h 38.31628 z"
   style="clip-rule:evenodd;fill:#0a2961;fill-rule:nonzero;stroke-width:0.838376;stroke-linejoin:round;stroke-miterlimit:2;fill-opacity:1"
   id="path3" /><path
   d="m 345.48524,186.33778 h -27.84246 v 85.3634 h -16.08423 v -85.3634 H 273.784 v -13.99669 h 71.70124 z"
   style="clip-rule:evenodd;fill:#0a2961;fill-rule:nonzero;stroke-width:0.838376;stroke-linejoin:round;stroke-miterlimit:2;fill-opacity:1"
   id="path4" /></svg>
